<svg id="Layer_1" data-name="Layer 1" xmlns="http://www.w3.org/2000/svg" viewBox="0 0 512 512"><defs><style>.cls-1{fill:#d18b46;}.cls-2{fill:#fdce9e;}</style></defs><rect class="cls-1" x="64" width="64" height="64"/><rect class="cls-2" width="64" height="64"/><rect class="cls-1" x="192" width="64" height="64"/><rect class="cls-2" x="128" width="64" height="64"/><rect class="cls-1" x="320" width="64" height="64"/><rect class="cls-2" x="256" width="64" height="64"/><rect class="cls-1" x="448" width="64" height="64"/><rect class="cls-2" x="384" width="64" height="64"/><rect class="cls-1" y="64" width="64" height="64"/><rect class="cls-1" x="128" y="64" width="64" height="64"/><rect class="cls-2" x="64" y="64" width="64" height="64"/><rect class="cls-1" x="256" y="64" width="64" height="64"/><rect class="cls-2" x="192" y="64" width="64" height="64"/><rect class="cls-1" x="384" y="64" width="64" height="64"/><rect class="cls-2" x="320" y="64" width="64" height="64"/><rect class="cls-1" x="64" y="128" width="64" height="64"/><rect class="cls-2" y="128" width="64" height="64"/><rect class="cls-1" x="192" y="128" width="64" height="64"/><rect class="cls-2" x="128" y="128" width="64" height="64"/><rect class="cls-1" x="320" y="128" width="64" height="64"/><rect class="cls-2" x="256" y="128" width="64" height="64"/><rect class="cls-1" x="448" y="128" width="64" height="64"/><rect class="cls-2" x="384" y="128" width="64" height="64"/><rect class="cls-1" y="192" width="64" height="64"/><rect class="cls-1" x="128" y="192" width="64" height="64"/><rect class="cls-2" x="64" y="192" width="64" height="64"/><rect class="cls-1" x="256" y="192" width="64" height="64"/><rect class="cls-2" x="192" y="192" width="64" height="64"/><rect class="cls-1" x="384" y="192" width="64" height="64"/><rect class="cls-2" x="320" y="192" width="64" height="64"/><rect class="cls-1" x="64" y="256" width="64" height="64"/><rect class="cls-2" y="256" width="64" height="64"/><rect class="cls-1" x="192" y="256" width="64" height="64"/><rect class="cls-2" x="128" y="256" width="64" height="64"/><rect class="cls-1" x="320" y="256" width="64" height="64"/><rect class="cls-2" x="256" y="256" width="64" height="64"/><rect class="cls-1" x="448" y="256" width="64" height="64"/><rect class="cls-2" x="384" y="256" width="64" height="64"/><rect class="cls-1" y="320" width="64" height="64"/><rect class="cls-1" x="128" y="320" width="64" height="64"/><rect class="cls-2" x="64" y="320" width="64" height="64"/><rect class="cls-1" x="256" y="320" width="64" height="64"/><rect class="cls-2" x="192" y="320" width="64" height="64"/><rect class="cls-1" x="384" y="320" width="64" height="64"/><rect class="cls-2" x="320" y="320" width="64" height="64"/><rect class="cls-1" x="64" y="384" width="64" height="64"/><rect class="cls-2" y="384" width="64" height="64"/><rect class="cls-1" x="192" y="384" width="64" height="64"/><rect class="cls-2" x="128" y="384" width="64" height="64"/><rect class="cls-1" x="320" y="384" width="64" height="64"/><rect class="cls-2" x="256" y="384" width="64" height="64"/><rect class="cls-1" x="448" y="384" width="64" height="64"/><rect class="cls-2" x="384" y="384" width="64" height="64"/><rect class="cls-1" y="448" width="64" height="64"/><rect class="cls-2" x="448" y="64" width="64" height="64"/><rect class="cls-2" x="448" y="192" width="64" height="64"/><rect class="cls-2" x="448" y="320" width="64" height="64"/><rect class="cls-2" x="448" y="448" width="64" height="64"/><rect class="cls-1" x="128" y="448" width="64" height="64"/><rect class="cls-2" x="64" y="448" width="64" height="64"/><rect class="cls-1" x="256" y="448" width="64" height="64"/><rect class="cls-2" x="192" y="448" width="64" height="64"/><rect class="cls-1" x="384" y="448" width="64" height="64"/><rect class="cls-2" x="320" y="448" width="64" height="64"/></svg>